<?xml version="1.0" encoding="UTF-8"?>
<svg version="1.1" xmlns="http://www.w3.org/2000/svg" width="80" height="74">
<path d="M0 0 C2.19411153 1.01869464 3.97174479 1.97564206 5.8125 3.5625 C8.07545414 5.28193018 8.07545414 5.28193018 11.625 5.4375 C12.73875 5.623125 13.8525 5.80875 15 6 C16.125 8 16.125 8 17 10 C19.44063441 10.67147918 19.44063441 10.67147918 22 11 C22.99 11.66 23.98 12.32 25 13 C25.40843923 15.71203652 25.13336867 18.2437142 25 21 C25.99 21.33 26.98 21.66 28 22 C28 23.98 28 25.96 28 28 C29.485 28.495 29.485 28.495 31 29 C30.56495142 31.52328175 30.29077075 32.73159623 28.375 34.5 C27.92125 34.995 27.4675 35.49 27 36 C27.2818047 38.32488881 27.95446418 39.90892835 29 42 C29.04284274 46.43850792 28.77414405 49.97613207 26.0625 53.5625 C24 55 24 55 22 55 C21.67 55.99 21.34 56.98 21 58 C20.34 58 19.68 58 19 58 C19 58.66 19 59.32 19 60 C16.03 60.66 13.06 61.32 10 62 C9.67 63.32 9.34 64.64 9 66 C7.6875 67.8125 7.6875 67.8125 6 69 C3.875 68.875 3.875 68.875 2 68 C1.67 67.01 1.34 66.02 1 65 C-0.134375 65.01160156 -1.26875 65.02320312 -2.4375 65.03515625 C-3.95833167 65.0445441 -5.47916514 65.05364322 -7 65.0625 C-8.11568359 65.07506836 -8.11568359 65.07506836 -9.25390625 65.08789062 C-14.2610271 65.10966072 -19.07318227 64.94538717 -24 64 C-24.66 63.01 -25.32 62.02 -26 61 C-25.67 60.01 -25.34 59.02 -25 58 C-25.99 57.67 -26.98 57.34 -28 57 C-30.62225892 55.08373387 -30.98538152 54.0677766 -31.6875 50.8125 C-31.790625 49.884375 -31.89375 48.95625 -32 48 C-32.66 48 -33.32 48 -34 48 C-34.33 46.02 -34.66 44.04 -35 42 C-35.99 41.67 -36.98 41.34 -38 41 C-37.67 39.68 -37.34 38.36 -37 37 C-36.34 37 -35.68 37 -35 37 C-34.67 36.01 -34.34 35.02 -34 34 C-33.34 34 -32.68 34 -32 34 C-32.32960216 28.98464948 -32.32960216 28.98464948 -35 25 C-35 20.08242273 -33.03712993 16.65910111 -30.0859375 12.89453125 C-26.74873989 9.8635559 -22.90649052 8.51856137 -18.70703125 7.0078125 C-15.83740624 6.05738379 -15.83740624 6.05738379 -13 4 C-10.1769847 3.39596701 -7.35111551 2.98715131 -4.49609375 2.5625 C-1.84167226 2.19791125 -1.84167226 2.19791125 0 0 Z " fill="#244C8D" transform="translate(45,3)"/>
<path d="M0 0 C0.66 0.99 1.32 1.98 2 3 C3.65614657 3.38218767 5.32457024 3.71395102 7 4 C7.99 4.66 8.98 5.32 10 6 C10.40843923 8.71203652 10.13336867 11.2437142 10 14 C10.99 14.33 11.98 14.66 13 15 C13 16.98 13 18.96 13 21 C13.99 21.33 14.98 21.66 16 22 C15.56495142 24.52328175 15.29077075 25.73159623 13.375 27.5 C12.92125 27.995 12.4675 28.49 12 29 C12.2818047 31.32488881 12.95446418 32.90892835 14 35 C14.04284274 39.43850792 13.77414405 42.97613207 11.0625 46.5625 C9 48 9 48 7 48 C6.67 48.99 6.34 49.98 6 51 C5.34 51 4.68 51 4 51 C4 51.66 4 52.32 4 53 C1.03 53.66 -1.94 54.32 -5 55 C-5.33 56.32 -5.66 57.64 -6 59 C-7.3125 60.8125 -7.3125 60.8125 -9 62 C-11.125 61.875 -11.125 61.875 -13 61 C-13.495 59.515 -13.495 59.515 -14 58 C-18.62 58 -23.24 58 -28 58 C-28 56.02 -28 54.04 -28 52 C-26.68 52 -25.36 52 -24 52 C-24 52.66 -24 53.32 -24 54 C-19.05 54.33 -14.1 54.66 -9 55 C-9 55.99 -9 56.98 -9 58 C-8.34 58 -7.68 58 -7 58 C-7 56.02 -7 54.04 -7 52 C-3.7 52 -0.4 52 3 52 C3 51.01 3 50.02 3 49 C3.66 49 4.32 49 5 49 C5.33 48.01 5.66 47.02 6 46 C6.99 46 7.98 46 9 46 C9 45.01 9 44.02 9 43 C9.99 43 10.98 43 12 43 C12 40.03 12 37.06 12 34 C11.01 34 10.02 34 9 34 C9 35.98 9 37.96 9 40 C8.01 40 7.02 40 6 40 C6 38.02 6 36.04 6 34 C6.66 34 7.32 34 8 34 C7.90460938 33.3709375 7.80921875 32.741875 7.7109375 32.09375 C6.93792204 26.12535154 7.19257468 21.74123337 9 16 C8.01 16 7.02 16 6 16 C3.4345406 13.4345406 3.45953913 11.52313332 3 8 C0.03 7.505 0.03 7.505 -3 7 C-3.33 6.01 -3.66 5.02 -4 4 C-2.68 3.67 -1.36 3.34 0 3 C0 2.01 0 1.02 0 0 Z " fill="#2A416D" transform="translate(60,10)"/>
<path d="M0 0 C0.33 0 0.66 0 1 0 C1.66 2.97 2.32 5.94 3 9 C2.01 9 1.02 9 0 9 C0 8.01 0 7.02 0 6 C-0.66 6 -1.32 6 -2 6 C-2 7.65 -2 9.3 -2 11 C-1.01 11 -0.02 11 1 11 C1.33 15.62 1.66 20.24 2 25 C1.01 25.33 0.02 25.66 -1 26 C-1.33 28.31 -1.66 30.62 -2 33 C-1.34 33 -0.68 33 0 33 C0 32.01 0 31.02 0 30 C0.99 30 1.98 30 3 30 C3 31.32 3 32.64 3 34 C2.34 34 1.68 34 1 34 C1 35.65 1 37.3 1 39 C1.99 39 2.98 39 4 39 C4.33 39.99 4.66 40.98 5 42 C6.65 42.33 8.3 42.66 10 43 C10 43.66 10 44.32 10 45 C10.99 45 11.98 45 13 45 C13 45.99 13 46.98 13 48 C13.66 48 14.32 48 15 48 C15 48.66 15 49.32 15 50 C13.72125 50.061875 12.4425 50.12375 11.125 50.1875 C10.04605469 50.23970703 10.04605469 50.23970703 8.9453125 50.29296875 C8.30335937 50.19628906 7.66140625 50.09960938 7 50 C6.34 49.01 5.68 48.02 5 47 C5.33 46.01 5.66 45.02 6 44 C5.01 43.67 4.02 43.34 3 43 C0.37774108 41.08373387 0.01461848 40.0677766 -0.6875 36.8125 C-0.790625 35.884375 -0.89375 34.95625 -1 34 C-1.66 34 -2.32 34 -3 34 C-3.33 32.02 -3.66 30.04 -4 28 C-4.99 27.67 -5.98 27.34 -7 27 C-6.67 25.68 -6.34 24.36 -6 23 C-5.34 23 -4.68 23 -4 23 C-3.67 22.01 -3.34 21.02 -3 20 C-2.34 20 -1.68 20 -1 20 C-1.32960216 14.98464948 -1.32960216 14.98464948 -4 11 C-3.70765453 6.61481795 -2.52691125 3.57979093 0 0 Z " fill="#17223A" transform="translate(14,17)"/>
<path d="M0 0 C0.99 0.33 1.98 0.66 3 1 C3.625 2.9375 3.625 2.9375 4 5 C4.495 5.99 4.495 5.99 5 7 C5.04284274 11.43850792 4.77414405 14.97613207 2.0625 18.5625 C0 20 0 20 -2 20 C-2.495 21.485 -2.495 21.485 -3 23 C-3.66 23 -4.32 23 -5 23 C-5 23.66 -5 24.32 -5 25 C-7.97 25.66 -10.94 26.32 -14 27 C-14.33 28.32 -14.66 29.64 -15 31 C-16.3125 32.8125 -16.3125 32.8125 -18 34 C-20.125 33.875 -20.125 33.875 -22 33 C-22.495 31.515 -22.495 31.515 -23 30 C-27.62 30 -32.24 30 -37 30 C-37 28.02 -37 26.04 -37 24 C-35.68 24 -34.36 24 -33 24 C-33 24.66 -33 25.32 -33 26 C-28.05 26.33 -23.1 26.66 -18 27 C-18 27.99 -18 28.98 -18 30 C-17.34 30 -16.68 30 -16 30 C-16 28.02 -16 26.04 -16 24 C-12.7 24 -9.4 24 -6 24 C-6 23.01 -6 22.02 -6 21 C-5.34 21 -4.68 21 -4 21 C-3.505 19.515 -3.505 19.515 -3 18 C-2.01 18 -1.02 18 0 18 C0 17.01 0 16.02 0 15 C0.99 15 1.98 15 3 15 C3 12.03 3 9.06 3 6 C2.01 6 1.02 6 0 6 C0 4.02 0 2.04 0 0 Z " fill="#131F46" transform="translate(69,38)"/>
<path d="M0 0 C2.19411153 1.01869464 3.97174479 1.97564206 5.8125 3.5625 C8.77525287 5.50945189 11.5150317 5.66490689 15 6 C15 6.33 15 6.66 15 7 C11.7 7 8.4 7 5 7 C5 6.34 5 5.68 5 5 C4.34 5 3.68 5 3 5 C3 5.66 3 6.32 3 7 C1.68 7 0.36 7 -1 7 C-1 6.34 -1 5.68 -1 5 C-2.8141927 5.28094582 -4.62635001 5.57506433 -6.4375 5.875 C-7.44683594 6.03742187 -8.45617187 6.19984375 -9.49609375 6.3671875 C-10.32238281 6.57601563 -11.14867188 6.78484375 -12 7 C-12.33 7.66 -12.66 8.32 -13 9 C-15.5625 9.625 -15.5625 9.625 -18 10 C-18.33 10.99 -18.66 11.98 -19 13 C-20.670625 13.12375 -20.670625 13.12375 -22.375 13.25 C-26.05753944 13.57873787 -26.05753944 13.57873787 -27.4375 16.0625 C-27.623125 16.701875 -27.80875 17.34125 -28 18 C-28.66 16.68 -29.32 15.36 -30 14 C-27.68571812 10.2627475 -25.64297654 9.20030701 -21.5 7.875 C-18.21655729 6.80699847 -15.89798453 5.93198969 -13 4 C-10.1769847 3.39596701 -7.35111551 2.98715131 -4.49609375 2.5625 C-1.84167226 2.19791125 -1.84167226 2.19791125 0 0 Z " fill="#2B3A61" transform="translate(45,3)"/>
<path d="M0 0 C0.99 0 1.98 0 3 0 C3 2.97 3 5.94 3 9 C2.01 9 1.02 9 0 9 C0 9.99 0 10.98 0 12 C-0.99 12.33 -1.98 12.66 -3 13 C-3.33 13.66 -3.66 14.32 -4 15 C-4.66 15 -5.32 15 -6 15 C-6 15.99 -6 16.98 -6 18 C-8.64 18 -11.28 18 -14 18 C-14 17.34 -14 16.68 -14 16 C-9.5 14.5 -9.5 14.5 -5 13 C-4.67 10.03 -4.34 7.06 -4 4 C-3.67 4.66 -3.34 5.32 -3 6 C-2.01 6 -1.02 6 0 6 C0 4.02 0 2.04 0 0 Z " fill="#38456F" transform="translate(69,44)"/>
<path d="M0 0 C1.32 0 2.64 0 4 0 C4 0.66 4 1.32 4 2 C8.95 2.33 13.9 2.66 19 3 C19 5.31 19 7.62 19 10 C17.0625 9.6875 17.0625 9.6875 15 9 C14.67 8.01 14.34 7.02 14 6 C9.38 6 4.76 6 0 6 C0 4.02 0 2.04 0 0 Z " fill="#253659" transform="translate(32,62)"/>
<path d="M0 0 C0.99 0 1.98 0 3 0 C3 0.99 3 1.98 3 3 C2.01 3 1.02 3 0 3 C0 4.65 0 6.3 0 8 C0.99 8 1.98 8 3 8 C3 7.34 3 6.68 3 6 C4.32 6 5.64 6 7 6 C6.42655063 8.86724686 6.1385485 9.8614515 4 12 C2.68 12 1.36 12 0 12 C0 15.96 0 19.92 0 24 C-0.99 24 -1.98 24 -3 24 C-3 22.02 -3 20.04 -3 18 C-2.34 18 -1.68 18 -1 18 C-1.09539062 17.3709375 -1.19078125 16.741875 -1.2890625 16.09375 C-2.06207796 10.12535154 -1.80742532 5.74123337 0 0 Z " fill="#344670" transform="translate(69,26)"/>
<path d="M0 0 C0 0.66 0 1.32 0 2 C1.32 2 2.64 2 4 2 C4 1.34 4 0.68 4 0 C4.66 0 5.32 0 6 0 C6 0.66 6 1.32 6 2 C9.3 2 12.6 2 16 2 C16 2.99 16 3.98 16 5 C13.625 5.625 13.625 5.625 11 6 C10.34 5.34 9.68 4.68 9 4 C5.8208717 3.45578247 5.8208717 3.45578247 2.1875 3.25 C0.96417969 3.15203125 -0.25914063 3.0540625 -1.51953125 2.953125 C-4.98588912 2.99980995 -6.91199423 3.53504163 -10 5 C-12.32748694 5.68679942 -14.65986656 6.35761043 -17 7 C-17 6.34 -17 5.68 -17 5 C-15.35 4.67 -13.7 4.34 -12 4 C-11.67 3.01 -11.34 2.02 -11 1 C-3.375 0 -3.375 0 0 0 Z " fill="#334D85" transform="translate(44,8)"/>
<path d="M0 0 C2.19411153 1.01869464 3.97174479 1.97564206 5.8125 3.5625 C8.77525287 5.50945189 11.5150317 5.66490689 15 6 C15 6.33 15 6.66 15 7 C11.7 7 8.4 7 5 7 C5 6.34 5 5.68 5 5 C4.34 5 3.68 5 3 5 C3 5.66 3 6.32 3 7 C1.68 7 0.36 7 -1 7 C-1 6.34 -1 5.68 -1 5 C-4.96 5 -8.92 5 -13 5 C-13 4.67 -13 4.34 -13 4 C-11.84371094 3.81824219 -11.84371094 3.81824219 -10.6640625 3.6328125 C-9.66117188 3.46523437 -8.65828125 3.29765625 -7.625 3.125 C-6.12839844 2.88136719 -6.12839844 2.88136719 -4.6015625 2.6328125 C-1.8574885 2.2041198 -1.8574885 2.2041198 0 0 Z " fill="#0E162B" transform="translate(45,3)"/>
<path d="M0 0 C0.33 0 0.66 0 1 0 C1.66 2.97 2.32 5.94 3 9 C2.01 9 1.02 9 0 9 C0 8.01 0 7.02 0 6 C-0.66 6 -1.32 6 -2 6 C-2 7.65 -2 9.3 -2 11 C-1.01 11 -0.02 11 1 11 C1 14.3 1 17.6 1 21 C-0.32 20.67 -1.64 20.34 -3 20 C-2.34 20 -1.68 20 -1 20 C-1.32960216 14.98464948 -1.32960216 14.98464948 -4 11 C-3.70765453 6.61481795 -2.52691125 3.57979093 0 0 Z " fill="#141D3E" transform="translate(14,17)"/>
<path d="M0 0 C1.65 0 3.3 0 5 0 C5.33 1.32 5.66 2.64 6 4 C5.01 4.33 4.02 4.66 3 5 C2.67 7.31 2.34 9.62 2 12 C1.34 11.67 0.68 11.34 0 11 C0 9.68 0 8.36 0 7 C-0.99 6.67 -1.98 6.34 -3 6 C-2.67 4.68 -2.34 3.36 -2 2 C-1.34 2 -0.68 2 0 2 C0 1.34 0 0.68 0 0 Z " fill="#324166" transform="translate(10,38)"/>
<path d="M0 0 C0.33 0.66 0.66 1.32 1 2 C2.32 2 3.64 2 5 2 C5 2.66 5 3.32 5 4 C5.99 4 6.98 4 8 4 C10.1875 6 10.1875 6 12 8 C11.67 8.66 11.34 9.32 11 10 C8.69 9.67 6.38 9.34 4 9 C3.67 7.68 3.34 6.36 3 5 C2.01 5 1.02 5 0 5 C0 3.35 0 1.7 0 0 Z " fill="#31497B" transform="translate(15,51)"/>
<path d="M0 0 C0.33 0 0.66 0 1 0 C1 2.64 1 5.28 1 8 C1.99 8.33 2.98 8.66 4 9 C4 10.98 4 12.96 4 15 C4.66 15.33 5.32 15.66 6 16 C5.01 16 4.02 16 3 16 C3 16.66 3 17.32 3 18 C2.01 18 1.02 18 0 18 C0 16.35 0 14.7 0 13 C0.99 13 1.98 13 3 13 C3 12.01 3 11.02 3 10 C1.02 10 -0.96 10 -3 10 C-3 9.01 -3 8.02 -3 7 C-2.01 7 -1.02 7 0 7 C0 4.69 0 2.38 0 0 Z " fill="#0A1331" transform="translate(69,16)"/>
<path d="M0 0 C0.66 0 1.32 0 2 0 C1.34 2.64 0.68 5.28 0 8 C-0.66 8 -1.32 8 -2 8 C-2 8.99 -2 9.98 -2 11 C-4.64 11 -7.28 11 -10 11 C-10 10.34 -10 9.68 -10 9 C-7 8 -4 7 -1 6 C-1.020625 5.195625 -1.04125 4.39125 -1.0625 3.5625 C-1 1 -1 1 0 0 Z " fill="#364C82" transform="translate(65,51)"/>
<path d="M0 0 C0.66 0 1.32 0 2 0 C2 0.66 2 1.32 2 2 C5.3 2 8.6 2 12 2 C12 2.99 12 3.98 12 5 C9.625 5.625 9.625 5.625 7 6 C6.34 5.34 5.68 4.68 5 4 C2.79749008 3.53993654 2.79749008 3.53993654 0.375 3.375 C-0.85089844 3.26285156 -0.85089844 3.26285156 -2.1015625 3.1484375 C-2.72804687 3.09945313 -3.35453125 3.05046875 -4 3 C-2.68 2.67 -1.36 2.34 0 2 C0 1.34 0 0.68 0 0 Z " fill="#35496E" transform="translate(48,8)"/>
<path d="M0 0 C0.99 0.33 1.98 0.66 3 1 C3.625 2.9375 3.625 2.9375 4 5 C4.33 5.66 4.66 6.32 5 7 C4.91348369 8.54613014 4.75997364 10.08909387 4.5625 11.625 C4.46066406 12.44226562 4.35882813 13.25953125 4.25390625 14.1015625 C4.17011719 14.72804688 4.08632812 15.35453125 4 16 C3.67 16 3.34 16 3 16 C3 12.7 3 9.4 3 6 C2.01 6 1.02 6 0 6 C0 4.02 0 2.04 0 0 Z " fill="#070E22" transform="translate(69,38)"/>
<path d="M0 0 C0.66 0 1.32 0 2 0 C2 0.99 2 1.98 2 3 C2.66 3 3.32 3 4 3 C4 7.95 4 12.9 4 18 C3.67 18 3.34 18 3 18 C3 13.71 3 9.42 3 5 C2.01 5 1.02 5 0 5 C0 3.35 0 1.7 0 0 Z " fill="#414F77" transform="translate(12,23)"/>
<path d="M0 0 C0.99 0.33 1.98 0.66 3 1 C1.68 3.64 0.36 6.28 -1 9 C-4 6 -4 6 -4.1875 3.3125 C-4.125625 2.549375 -4.06375 1.78625 -4 1 C-3.01 2.485 -3.01 2.485 -2 4 C-1.34 2.68 -0.68 1.36 0 0 Z " fill="#30487B" transform="translate(19,16)"/>
<path d="M0 0 C0.66 0.99 1.32 1.98 2 3 C3.65821773 3.37309899 5.32577014 3.70700977 7 4 C7.66 4.66 8.32 5.32 9 6 C5.37 6 1.74 6 -2 6 C-1.34 4.02 -0.68 2.04 0 0 Z " fill="#0D192E" transform="translate(60,10)"/>
<path d="M0 0 C2.64 0 5.28 0 8 0 C8 0.33 8 0.66 8 1 C5.69 1.33 3.38 1.66 1 2 C0.896875 2.61875 0.79375 3.2375 0.6875 3.875 C0 6 0 6 -3 8 C-3 7.01 -3 6.02 -3 5 C-2.34 5 -1.68 5 -1 5 C-0.67 3.35 -0.34 1.7 0 0 Z " fill="#07102D" transform="translate(54,63)"/>
<path d="M0 0 C0.99 0 1.98 0 3 0 C3 1.32 3 2.64 3 4 C2.34 4 1.68 4 1 4 C1 5.65 1 7.3 1 9 C0.34 8.34 -0.32 7.68 -1 7 C-1 6.01 -1 5.02 -1 4 C-1.66 3.67 -2.32 3.34 -3 3 C-2.01 3 -1.02 3 0 3 C0 2.01 0 1.02 0 0 Z " fill="#142356" transform="translate(14,47)"/>
<path d="M0 0 C0.33 0 0.66 0 1 0 C1.66 2.97 2.32 5.94 3 9 C2.01 9 1.02 9 0 9 C0 8.01 0 7.02 0 6 C-0.99 5.67 -1.98 5.34 -3 5 C-2.03114628 3.31503702 -1.03013277 1.64821244 0 0 Z " fill="#162348" transform="translate(14,17)"/>
<path d="M0 0 C1.32 0 2.64 0 4 0 C3.6875 1.875 3.6875 1.875 3 4 C2.01 4.66 1.02 5.32 0 6 C0 5.01 0 4.02 0 3 C-0.99 2.67 -1.98 2.34 -3 2 C-2.01 2 -1.02 2 0 2 C0 1.34 0 0.68 0 0 Z " fill="#28283B" transform="translate(72,32)"/>
<path d="M0 0 C1.00302224 3.76133339 1 7.11433294 1 11 C0.896875 10.360625 0.79375 9.72125 0.6875 9.0625 C0.460625 8.381875 0.23375 7.70125 0 7 C-0.99 6.67 -1.98 6.34 -3 6 C-2.67 4.68 -2.34 3.36 -2 2 C-1.34 2 -0.68 2 0 2 C0 1.34 0 0.68 0 0 Z " fill="#131A2E" transform="translate(10,38)"/>
<path d="M0 0 C0.99 0 1.98 0 3 0 C3 1.98 3 3.96 3 6 C2.01 6 1.02 6 0 6 C0 4.02 0 2.04 0 0 Z " fill="#041647" transform="translate(66,44)"/>
<path d="M0 0 C2.97 0 5.94 0 9 0 C9 0.66 9 1.32 9 2 C8.34 2 7.68 2 7 2 C6.67 2.99 6.34 3.98 6 5 C5.67 4.01 5.34 3.02 5 2 C3.35 2 1.7 2 0 2 C0 1.34 0 0.68 0 0 Z " fill="#070C28" transform="translate(41,66)"/>
</svg>
